<svg width="326" height="27" viewBox="0 0 326 27" fill="none" xmlns="http://www.w3.org/2000/svg">
<path d="M9.73022 24.3316C12.1478 23.4253 15.1392 22.1732 17.5423 21.391C17.5769 21.3797 17.6115 21.3684 17.6461 21.357C18.6675 21.023 19.6327 20.727 20.9045 20.3381C21.0582 20.2914 21.2165 20.2436 21.3787 20.1945C22.8307 19.7548 24.629 19.2122 27.0886 18.4755C35.3175 16.0051 41.7253 13.9442 43.7346 13.3106C47.754 12.044 52.0901 10.8544 58.0469 9.48471C58.5922 9.3602 59.1457 9.23635 59.7224 9.10929C60.1882 9.00666 60.5921 9.01469 60.6262 9.12487C60.66 9.23521 60.3117 9.4059 59.847 9.50872C59.2833 9.63334 58.7428 9.7552 58.2112 9.87691C58.2088 9.87747 58.2063 9.87802 58.2039 9.87857C52.2219 11.2587 47.987 12.4267 44.0679 13.662C42.0197 14.3082 35.4597 16.4203 27.0443 18.9589C24.5584 19.7071 22.7397 20.2595 21.2894 20.7005C21.1324 20.7482 20.9759 20.7958 20.8192 20.8439C20.8155 20.845 20.8118 20.8462 20.8082 20.8473C19.5323 21.2393 18.6277 21.5172 17.6347 21.8437C17.6143 21.8505 17.5939 21.8573 17.5735 21.8641C15.1384 22.6602 12.2256 23.8895 9.87781 24.772C9.45042 24.9322 9.03908 24.9762 8.99773 24.8545C8.95845 24.7321 9.30143 24.492 9.73022 24.3316ZM180.969 15.3062C183.475 15.5552 186.781 16.0482 189.693 16.5173C192.64 16.9922 195.276 17.4574 196.523 17.6885C197.747 17.9155 199.111 18.1259 200.731 18.3652C201.103 18.42 201.488 18.4763 201.886 18.5345C203.189 18.725 204.68 18.9423 206.29 19.1894C212.174 20.0924 216.051 20.6169 218.833 20.9814C219.405 21.0563 219.936 21.1247 220.431 21.1884C220.431 21.1885 220.432 21.1887 220.433 21.1888C222.306 21.4298 223.654 21.6005 224.966 21.8012C227.279 22.1547 229.059 22.4282 231.341 22.8028C234.442 23.3148 238.9 23.8218 241.745 24.0507C241.9 24.0633 242.059 24.076 242.22 24.0889C244.411 24.2678 246.833 24.4592 250.815 24.7877C253.942 25.0407 256.839 25.2873 259.315 25.474C260.045 25.5292 260.728 25.5788 261.371 25.6228C262.925 25.7297 264.555 25.8218 265.895 25.8665C267.549 25.9237 269.384 25.9556 270.729 25.9474C276.49 25.9182 280.11 25.8068 282.629 25.7452C285.034 25.6817 286.361 25.6555 287.352 25.6354C287.648 25.6292 287.909 25.6235 288.153 25.616C290.303 25.5503 292.338 25.4259 294.713 25.2439C295.245 25.2029 295.814 25.1568 296.388 25.1086C298.314 24.9461 299.741 24.7715 300.885 24.6168C301.38 24.5495 301.797 24.4888 302.207 24.4282C302.215 24.427 302.223 24.4258 302.23 24.4247C302.288 24.4161 302.346 24.4077 302.403 24.3992C302.446 24.3929 302.489 24.3863 302.531 24.3799C302.548 24.3767 302.563 24.3741 302.575 24.372C302.583 24.3704 302.59 24.3692 302.595 24.3684C302.596 24.3682 302.596 24.368 302.597 24.3678C302.678 24.3533 302.747 24.3426 302.762 24.3404C302.786 24.3366 302.809 24.3334 302.82 24.3317C302.879 24.3229 302.956 24.3122 303.007 24.3051C303.137 24.2869 303.364 24.2556 303.709 24.2072C304.009 24.163 304.291 24.1187 304.666 24.059C304.69 24.0553 304.713 24.0515 304.736 24.0478C305.096 23.9902 305.514 23.9226 306.026 23.8389C306.484 23.764 306.953 23.7298 307.02 23.7731C307.092 23.8155 306.76 23.9166 306.279 23.9961C305.799 24.0757 305.411 24.1397 305.053 24.1979C305.03 24.2016 305.008 24.2053 304.985 24.209C304.612 24.2694 304.246 24.3274 303.879 24.3819C303.754 24.4005 303.625 24.4193 303.503 24.4367C303.285 24.4692 303.035 24.5074 302.732 24.5531C302.671 24.5623 302.608 24.5716 302.544 24.5813C302.121 24.6445 301.667 24.7121 301.131 24.786C299.866 24.9598 298.27 25.1562 296.178 25.3321C295.63 25.3781 295.067 25.4239 294.559 25.463C292.162 25.6474 289.982 25.7815 287.697 25.8488C287.378 25.8582 287.07 25.8647 286.738 25.8713C285.799 25.8872 284.606 25.9108 282.408 25.9686C280.003 26.0271 276.458 26.1393 270.729 26.1737C269.403 26.183 267.611 26.1543 265.968 26.0999C264.559 26.0551 262.833 25.9582 261.246 25.8496C260.614 25.8066 259.953 25.7593 259.266 25.7079C256.832 25.5261 254.006 25.2882 250.997 25.0491C247.121 24.7347 244.743 24.5498 242.57 24.3757C242.496 24.3698 242.422 24.3639 242.348 24.358C242.254 24.3503 242.17 24.3437 242.083 24.3368C239.062 24.0981 234.316 23.5661 230.88 23.0005C228.722 22.6463 226.995 22.3827 224.698 22.0331C223.552 21.8586 222.405 21.7147 220.57 21.4804C220.056 21.4148 219.49 21.3419 218.859 21.26C216.026 20.8913 212.088 20.3624 206.137 19.4543C204.578 19.2162 203.151 19.0096 201.854 18.8213C201.449 18.7623 201.05 18.7042 200.659 18.6469C199.031 18.408 197.507 18.1762 196.092 17.9149C194.941 17.7021 192.383 17.2524 189.517 16.7931C186.645 16.3329 183.587 15.8839 181.383 15.6667C181.154 15.6441 180.924 15.6212 180.693 15.5985C178.709 15.4024 176.684 15.2035 175.044 15.123C167.642 15.0357 154.559 12.8504 145.896 11.6189C145.781 11.6026 145.666 11.5863 145.551 11.5701C135.567 10.153 128.218 9.25505 125.795 8.96618C125.678 8.952 125.57 8.93917 125.474 8.92763C125.388 8.91731 125.311 8.90819 125.242 8.89997C124.217 8.77676 123.316 8.68192 122.379 8.58486C122.328 8.57957 122.277 8.57429 122.226 8.56902C121.228 8.46558 120.244 8.36511 118.982 8.21961C114.389 7.69094 110.652 7.31864 107.469 7.03108C106.858 6.97559 106.269 6.9232 105.701 6.87405C105.7 6.87389 105.698 6.87374 105.696 6.87358C103.249 6.66239 100.991 6.48692 98.937 6.33473C95.1163 6.05239 92.6023 5.95382 90.5722 5.90322C89.9546 5.88866 89.4003 5.88016 88.8882 5.87524C87.6525 5.86076 86.6332 5.86493 85.638 5.87293C84.366 5.88222 83.0529 5.92908 82.0005 6.00444C81.396 6.04575 80.7933 6.09392 80.1879 6.14797C80.0298 6.16208 79.8716 6.17639 79.7131 6.1913C77.7976 6.37227 75.8895 6.6054 73.8883 6.87024C73.4205 6.93218 73.0181 6.89662 72.9934 6.78707C72.9693 6.67765 73.3332 6.53549 73.8026 6.4737C75.7531 6.21699 77.6239 5.98791 79.5425 5.80558C79.7027 5.79044 79.8632 5.77542 80.0236 5.76104C80.673 5.70279 81.3245 5.65088 81.9817 5.60687C83.0191 5.53443 84.3019 5.48907 85.5706 5.48018C86.5319 5.4728 87.4918 5.46838 88.6999 5.48163C89.2602 5.48774 89.7983 5.49508 90.4553 5.51066C92.5095 5.5618 95.0707 5.66349 98.9334 5.95211C100.961 6.10398 103.201 6.2798 105.643 6.49228C106.214 6.54211 106.808 6.59502 107.427 6.65161C110.625 6.94307 114.38 7.32027 118.999 7.85595C120.197 7.99519 121.125 8.09072 122.119 8.1944C122.174 8.2002 122.229 8.206 122.284 8.21181C123.212 8.30863 124.162 8.40908 125.246 8.54018C125.39 8.5577 125.575 8.58027 125.799 8.6073C128.227 8.89908 135.605 9.80677 145.627 11.2385C145.658 11.2431 145.69 11.2476 145.721 11.2521C152.421 12.2089 156.228 12.7683 159.106 13.088C161.38 13.3417 163.053 13.5615 164.442 13.7497C164.706 13.7856 164.957 13.8195 165.195 13.8521C166.225 13.9928 167.046 14.1052 167.858 14.1979C170.321 14.4796 172.101 14.623 174.265 14.7305C176.098 14.8215 178.326 15.0425 180.278 15.2373C180.281 15.2376 180.284 15.2379 180.287 15.2382C180.519 15.2613 180.747 15.2841 180.969 15.3062ZM312.871 22.5397C313.34 22.4507 313.728 22.417 313.737 22.468C313.738 22.5207 313.359 22.6386 312.889 22.7283C311.736 22.9482 310.6 23.1506 309.473 23.3397C308.998 23.4194 308.598 23.4405 308.594 23.3873C308.591 23.334 308.985 23.2269 309.459 23.1477C310.586 22.9595 311.721 22.7582 312.871 22.5397ZM179.205 13.4981C179.672 13.5504 180.127 13.6729 180.221 13.771C180.314 13.869 180.01 13.906 179.543 13.8542C179.296 13.8268 178.89 13.7832 178.343 13.7248C174.399 13.3024 163.167 12.1105 151.267 10.5785C150.262 10.4489 149.366 10.335 148.514 10.2274C144.873 9.76928 141.93 9.59893 134.913 8.65754C117.289 6.4433 99.4573 3.55726 81.8956 3.78494C70.2166 4.36539 58.6345 6.88514 47.3277 10.0132C39.121 12.3112 31.024 14.8495 22.9457 17.5998C16.1827 19.8529 3.92655 24.2548 1.0751 25.4371C0.673371 25.5963 0.182875 25.6829 0.219087 25.528C0.219087 25.528 0.219087 25.528 0.219087 25.528C0.218773 25.5273 0.218458 25.5265 0.218142 25.5258C0.0828492 25.4403 0.517721 25.1499 0.913377 24.9938C3.75489 23.8188 15.9831 19.4389 22.7291 17.1968C30.8052 14.4537 38.893 11.9245 47.098 9.6314C58.4573 6.49577 70.0765 3.88528 81.8689 3.22077C99.5694 2.87566 117.418 5.64665 135.055 7.89819C142.008 8.84706 144.771 9.41403 148.403 9.87297C149.257 9.98152 150.158 10.0965 151.171 10.2281C162.903 11.7485 173.965 12.9313 177.956 13.3623C178.52 13.4231 178.944 13.4689 179.205 13.4981ZM201.361 16.9064C206.697 17.6642 214.24 18.7904 220.876 19.7329C224.055 20.1858 227.138 20.6125 229.495 20.9269C233.261 21.4283 235.521 21.7727 237.891 22.123C237.917 22.1268 237.942 22.1305 237.967 22.1342C240.313 22.479 242.6 22.8127 246.41 23.2374C250.236 23.6605 255.534 24.1614 260.913 24.4935C260.917 24.4938 260.921 24.4941 260.925 24.4944C264.219 24.6981 267.826 24.7947 270.729 24.7489C272.514 24.7244 274.089 24.6937 275.543 24.6756C289.176 24.4921 297.562 23.6489 301.785 23.2543C309.21 22.508 317.528 20.9332 324.837 18.7742C325.664 18.5247 324.343 19.1645 322.852 19.5532C322.796 19.5682 322.74 19.5835 322.683 19.5989C322.177 19.7353 321.721 19.8551 321.08 20.02C320.164 20.2589 319.486 20.4268 318.834 20.5847C317.225 21.1054 305.629 23.206 301.472 23.4882C297.443 23.8555 289.262 24.949 275.512 25.1674C274.068 25.188 272.507 25.1854 270.729 25.1662C267.87 25.1364 264.331 24.9368 261.022 24.7365C261.007 24.7356 260.992 24.7347 260.978 24.7338C255.629 24.4104 250.283 23.9123 246.388 23.4849C242.434 23.0477 240.051 22.7005 237.664 22.3513C237.641 22.3478 237.618 22.3444 237.595 22.341C235.264 21.9973 233.088 21.6677 229.466 21.1886C227.055 20.8693 223.939 20.4409 220.736 19.9874C214.127 19.0542 206.687 17.9497 201.396 17.2031C200.921 17.1362 200.527 17.0149 200.517 16.9327C200.508 16.8506 200.886 16.839 201.361 16.9064ZM201.728 15.142C216.727 17.0859 231.706 19.4377 246.459 21.4452C250.304 21.897 255.685 22.5014 261.07 22.922C261.13 22.9268 261.19 22.9316 261.25 22.9363C264.49 23.1892 267.95 23.3754 270.729 23.3999C272.544 23.4163 274.142 23.4158 275.602 23.4047C289.178 23.2869 297.551 22.3833 301.741 22.0147C305.675 21.6403 306.766 21.4531 308.361 21.2138C308.406 21.207 308.45 21.2001 308.494 21.1933C308.497 21.1927 308.5 21.1921 308.503 21.1915C308.558 21.1803 308.604 21.1716 308.628 21.1673C308.677 21.1584 308.716 21.1517 308.731 21.1492C308.765 21.1434 308.794 21.1388 308.804 21.1371C308.846 21.1304 308.893 21.1229 308.924 21.1181C309.205 21.0747 310.099 20.936 310.81 20.8214C311.514 20.7088 312.06 20.6212 312.595 20.5343C312.65 20.5254 312.704 20.5166 312.758 20.5077C313.221 20.4324 313.807 20.333 314.544 20.1988C315.017 20.1121 315.362 20.0885 315.314 20.1504C315.274 20.2106 314.826 20.3389 314.378 20.4201C313.585 20.5644 312.99 20.6639 312.512 20.7415C312.458 20.7503 312.403 20.7592 312.348 20.768C311.822 20.8531 311.359 20.9267 310.725 21.0284C309.776 21.185 309.109 21.2915 308.465 21.3927C306.815 21.6425 305.531 21.8605 301.432 22.2461C297.432 22.591 289.288 23.4913 275.611 23.6264C274.147 23.6389 272.546 23.6409 270.729 23.626C267.939 23.6042 264.472 23.4203 261.231 23.1703C261.169 23.1656 261.107 23.1609 261.045 23.1561C255.652 22.7395 250.275 22.1399 246.438 21.6925C231.43 19.9154 216.777 17.8997 201.764 15.4393C199.008 15.0353 196.452 14.652 194.126 14.3016C187.219 13.2616 181.941 12.4561 176.868 11.8714C175.759 11.7438 172.847 11.3339 168.657 10.7426C167.433 10.57 166.073 10.3777 164.616 10.1729C161.051 9.67188 156.803 9.07811 152.031 8.43271C151.025 8.29673 150.128 8.17709 149.275 8.06396C145.648 7.5854 142.755 7.19928 135.746 6.2095C127.164 4.98396 112.716 3.04026 104.957 2.22032C101.106 1.79801 98.8887 1.58415 97.3267 1.43144C96.8793 1.38841 96.4906 1.35124 96.1367 1.31818C95.2133 1.23219 94.5108 1.16984 93.6103 1.10303C89.2276 0.79531 85.7937 0.654456 81.7562 0.836572C79.5007 0.951299 77.0502 1.16446 74.2518 1.5139C73.769 1.5742 73.3344 1.54034 73.2839 1.43417C73.2334 1.32808 73.5877 1.18923 74.0726 1.1285C76.9216 0.772366 79.4252 0.554825 81.7375 0.439584C85.7927 0.260382 89.263 0.405904 93.6744 0.720457C94.6168 0.791368 95.3721 0.859669 96.3156 0.948848C96.6659 0.982043 97.0429 1.01843 97.4684 1.05987C98.9909 1.21098 101.208 1.42685 105.033 1.85033C112.785 2.67724 127.215 4.63154 135.772 5.86115C142.714 6.84779 145.55 7.22896 149.164 7.70894C150.018 7.82297 150.92 7.94369 151.934 8.08168C156.715 8.73237 160.974 9.33112 164.539 9.83543C165.994 10.0413 167.35 10.234 168.571 10.4073C172.843 11.0142 175.581 11.401 176.531 11.511C181.781 12.1206 187.288 12.9664 194.257 14.022C196.557 14.3706 199.061 14.7485 201.728 15.142ZM46.8057 6.74801C47.2741 6.62113 47.7056 6.60532 47.7685 6.7108C47.8312 6.81634 47.5025 7.00352 47.0349 7.13048C44.5697 7.80051 42.7992 8.31439 41.4279 8.71668C38.8711 9.47058 37.657 9.84583 35.8053 10.3886C31.0453 11.789 26.484 13.2403 22.4019 14.6C15.5894 16.8687 10.1302 18.873 7.23031 19.9319C6.75666 20.1051 6.35956 20.14 6.31795 20.0182C6.27747 19.8962 6.60846 19.6639 7.083 19.4908C9.96543 18.4414 15.3909 16.4548 22.1877 14.1966C26.2792 12.8371 30.8607 11.382 35.6573 9.97511C37.4556 9.44964 38.6021 9.09624 41.1075 8.35817C42.4777 7.95663 44.272 7.43544 46.8057 6.74801Z" fill="#323232"/>
</svg>
