<svg width="3213" height="500" viewBox="0 0 3213 500" fill="none" xmlns="http://www.w3.org/2000/svg">
<rect width="250" height="500" fill="#00B493"/>
<rect x="711" width="250" height="500" fill="#9CDBCF"/>
<rect x="163" y="350" width="250" height="150" fill="#9CDBCF"/>
<rect x="437" y="350" width="250" height="150" fill="#9CDBCF"/>
<rect x="437" width="250" height="100" fill="#9CDBCF"/>
<rect x="637" y="100" width="250" height="150" transform="rotate(90 637 100)" fill="#00B493"/>
<rect x="1221" y="350" width="250" height="150" fill="#00B493"/>
<rect x="1221" width="250" height="100" fill="#9CDBCF"/>
<rect x="1221" y="175" width="250" height="100" fill="#9CDBCF"/>
<rect x="1371" y="100" width="250" height="150" transform="rotate(90 1371 100)" fill="#00B493"/>
<path d="M1165 68C1165 68 961 162.886 961 250C961 337.114 1165 432 1165 432" stroke="#FF7272" stroke-width="150"/>
<path d="M1165 68C1165 68 961 162.886 961 250C961 337.114 1165 432 1165 432" stroke="white" stroke-width="10" stroke-dasharray="40 40"/>
<rect x="2005" y="50" width="8" height="150" fill="#C8C8C8"/>
<rect x="2084" y="121" width="8.00001" height="150" transform="rotate(90 2084 121)" fill="#C8C8C8"/>
<rect x="2065.72" y="174.066" width="8" height="150" transform="rotate(135 2065.72 174.066)" fill="#C8C8C8"/>
<rect x="2060.07" y="69" width="8" height="150" transform="rotate(45 2060.07 69)" fill="#C8C8C8"/>
<circle cx="2009" cy="124" r="12" fill="#00B493"/>
<rect x="2005" y="259" width="8" height="190" fill="#C8C8C8"/>
<rect x="2104" y="350" width="8.00001" height="190" transform="rotate(90 2104 350)" fill="#C8C8C8"/>
<rect x="2079.01" y="418.35" width="8" height="190" transform="rotate(135 2079.01 418.35)" fill="#C8C8C8"/>
<rect x="2073.35" y="284" width="8" height="190" transform="rotate(45 2073.35 284)" fill="#C8C8C8"/>
<circle cx="2009.5" cy="353.5" r="13.5" fill="#00B493"/>
<rect x="2453" width="250" height="500" fill="#9CDBCF"/>
<rect x="2179" y="350" width="250" height="150" fill="#00B493"/>
<rect x="2179" width="250" height="100" fill="#00B493"/>
<rect x="2379" y="100" width="250" height="150" transform="rotate(90 2379 100)" fill="#9CDBCF"/>
<rect x="2963" y="350" width="250" height="150" fill="#9CDBCF"/>
<rect x="2963" width="250" height="100" fill="#00B493"/>
<rect x="2963" y="175" width="250" height="100" fill="#9CDBCF"/>
<rect x="3113" y="100" width="250" height="150" transform="rotate(90 3113 100)" fill="#00B493"/>
<path d="M2907 68C2907 68 2703 162.886 2703 250C2703 337.114 2907 432 2907 432" stroke="#FF7272" stroke-width="150"/>
<path d="M2907 68C2907 68 2703 162.886 2703 250C2703 337.114 2907 432 2907 432" stroke="white" stroke-width="10" stroke-dasharray="40 40"/>
<circle cx="2009" cy="354" r="106" stroke="#646464" stroke-width="80"/>
<circle cx="2009" cy="125" r="85" stroke="#646464" stroke-width="80"/>
<rect x="1808" width="198" height="500" fill="#9CDBCF"/>
</svg>
