<svg width="23" height="28" viewBox="0 0 23 28" fill="none" xmlns="http://www.w3.org/2000/svg">
<path d="M11.1667 13.8333C11.9 13.8333 12.5278 13.5722 13.05 13.05C13.5722 12.5278 13.8333 11.9 13.8333 11.1667C13.8333 10.4333 13.5722 9.80556 13.05 9.28333C12.5278 8.76111 11.9 8.5 11.1667 8.5C10.4333 8.5 9.80556 8.76111 9.28333 9.28333C8.76111 9.80556 8.5 10.4333 8.5 11.1667C8.5 11.9 8.76111 12.5278 9.28333 13.05C9.80556 13.5722 10.4333 13.8333 11.1667 13.8333ZM11.1667 27.1667C7.58889 24.1222 4.91667 21.2944 3.15 18.6833C1.38333 16.0722 0.5 13.6556 0.5 11.4333C0.5 8.1 1.57222 5.44444 3.71667 3.46667C5.86111 1.48889 8.34444 0.5 11.1667 0.5C13.9889 0.5 16.4722 1.48889 18.6167 3.46667C20.7611 5.44444 21.8333 8.1 21.8333 11.4333C21.8333 13.6556 20.95 16.0722 19.1833 18.6833C17.4167 21.2944 14.7444 24.1222 11.1667 27.1667Z" fill="#FF7272" stroke="white"/>
</svg>
