<svg width="32" height="32" viewBox="0 0 32 32" fill="none" xmlns="http://www.w3.org/2000/svg">
<path d="M16.0002 15.9993C16.7335 15.9993 17.3613 15.7382 17.8835 15.216C18.4057 14.6938 18.6668 14.066 18.6668 13.3327C18.6668 12.5993 18.4057 11.9716 17.8835 11.4493C17.3613 10.9271 16.7335 10.666 16.0002 10.666C15.2668 10.666 14.6391 10.9271 14.1168 11.4493C13.5946 11.9716 13.3335 12.5993 13.3335 13.3327C13.3335 14.066 13.5946 14.6938 14.1168 15.216C14.6391 15.7382 15.2668 15.9993 16.0002 15.9993ZM16.0002 29.3327C12.4224 26.2882 9.75016 23.4605 7.9835 20.8493C6.21683 18.2382 5.3335 15.8216 5.3335 13.5993C5.3335 10.266 6.40572 7.61046 8.55016 5.63268C10.6946 3.6549 13.1779 2.66602 16.0002 2.66602C18.8224 2.66602 21.3057 3.6549 23.4502 5.63268C25.5946 7.61046 26.6668 10.266 26.6668 13.5993C26.6668 15.8216 25.7835 18.2382 24.0168 20.8493C22.2502 23.4605 19.5779 26.2882 16.0002 29.3327Z" fill="#FF7272"/>
</svg>
