<svg width="17" height="16" viewBox="0 0 17 16" fill="none" xmlns="http://www.w3.org/2000/svg">
<path d="M7.73461 13V6.172H9.87061V13H7.73461ZM8.80261 5.224C8.44261 5.224 8.15461 5.124 7.93861 4.924C7.72261 4.724 7.61461 4.456 7.61461 4.12C7.61461 3.792 7.72261 3.528 7.93861 3.328C8.15461 3.128 8.44261 3.028 8.80261 3.028C9.15461 3.028 9.43861 3.128 9.65461 3.328C9.87861 3.528 9.99061 3.792 9.99061 4.12C9.99061 4.456 9.87861 4.724 9.65461 4.924C9.43861 5.124 9.15461 5.224 8.80261 5.224Z" fill="white"/>
<circle cx="8.79834" cy="8" r="7.5" stroke="white"/>
</svg>
