<svg width="22" height="22" viewBox="0 0 22 22" fill="none" xmlns="http://www.w3.org/2000/svg">
<path d="M8.33266 8.25065C8.54817 7.63801 8.97355 7.12142 9.53345 6.79236C10.0934 6.4633 10.7517 6.34301 11.3917 6.4528C12.0318 6.5626 12.6124 6.89538 13.0306 7.39222C13.4489 7.88905 13.6778 8.51788 13.6768 9.16732C13.6768 11.0007 10.9268 11.9173 10.9268 11.9173M11.0002 15.584H11.0093M20.1668 11.0007C20.1668 16.0633 16.0628 20.1673 11.0002 20.1673C5.93755 20.1673 1.8335 16.0633 1.8335 11.0007C1.8335 5.93804 5.93755 1.83398 11.0002 1.83398C16.0628 1.83398 20.1668 5.93804 20.1668 11.0007Z" stroke="#00B493" stroke-width="2" stroke-linecap="round" stroke-linejoin="round"/>
</svg>
